<?xml version="1.0" encoding="utf-8"?>
<!-- Generator: Adobe Illustrator 16.0.0, SVG Export Plug-In . SVG Version: 6.00 Build 0)  -->
<!DOCTYPE svg PUBLIC "-//W3C//DTD SVG 1.1//EN" "http://www.w3.org/Graphics/SVG/1.1/DTD/svg11.dtd">
<svg version="1.1" id="Layer_1" xmlns="http://www.w3.org/2000/svg" xmlns:xlink="http://www.w3.org/1999/xlink" x="0px" y="0px"
	 width="1400px" height="980px" viewBox="0 0 1400 980" enable-background="new 0 0 1400 980" xml:space="preserve">
<g>
	<rect fill="#FFFFFF" width="1399.994" height="980"/>
</g>
<g>
	<path d="M534.416,296.879L420.243,494.633l1.716,0.99l75.622-130.979h32.998l9.451,9.451l8.75-8.749h22.877l75.215,130.277
		l1.716-0.99l-49.843-86.331l68.101-117.952h52.203l14.56,14.56l13.463-13.461h36.359l117.881,204.174l1.717-0.99L724.822,185.971
		l-127.22,220.35L534.416,296.879z M782.288,289.468h-36.036l-12.643,12.64l-13.739-13.74h-51.879l56.831-98.435L782.288,289.468z
		 M547.96,363.365l-7.93,7.928l-8.631-8.631h-32.675l35.691-61.82l36.096,62.522H547.96z"/>
	<path d="M732.365,535.103V493.77c19.754-0.532,35.669-16.729,35.669-36.609c0-20.214-16.445-36.659-36.659-36.659
		c-20.215,0-36.66,16.445-36.66,36.659c0,19.88,15.915,36.077,35.668,36.609v41.333H732.365z M696.697,457.161
		c0-19.121,15.557-34.678,34.678-34.678s34.677,15.557,34.677,34.678c0,18.787-15.026,34.097-33.687,34.627v-34.627h-1.981v34.627
		C711.724,491.258,696.697,475.947,696.697,457.161z"/>
	<path d="M1095.693,353.021c31.202,0,56.587-25.385,56.587-56.587c0-31.204-25.385-56.589-56.587-56.589
		s-56.588,25.385-56.588,56.589C1039.105,327.636,1064.491,353.021,1095.693,353.021z M1095.693,241.544
		c30.266,0,54.888,24.625,54.888,54.89c0,30.268-24.622,54.892-54.888,54.892c-30.268,0-54.891-24.625-54.891-54.892
		C1040.803,266.168,1065.426,241.544,1095.693,241.544z"/>
	<path d="M1037.064,246.821c0.248,0,0.481-0.106,0.643-0.294c3.845-4.462,8.213-8.489,12.984-11.969
		c0.377-0.277,0.463-0.811,0.188-1.188c-0.16-0.22-0.412-0.346-0.687-0.346c-0.18,0-0.354,0.054-0.497,0.159
		c-4.877,3.559-9.344,7.675-13.275,12.238c-0.306,0.354-0.264,0.89,0.091,1.196C1036.664,246.75,1036.861,246.821,1037.064,246.821z
		"/>
	<path d="M1022.622,270.962c0.099,0.035,0.197,0.052,0.294,0.052c0.356,0,0.678-0.225,0.798-0.562
		c1.691-4.687,3.856-9.225,6.433-13.492c0.239-0.398,0.11-0.923-0.293-1.165c-0.131-0.081-0.282-0.124-0.435-0.124
		c-0.297,0-0.573,0.157-0.728,0.41c-2.64,4.377-4.852,9.02-6.574,13.793C1021.959,270.317,1022.187,270.805,1022.622,270.962z"/>
	<path d="M1032.354,342.311c0.16,0.218,0.418,0.348,0.688,0.348c0.18,0,0.353-0.056,0.497-0.159c0.378-0.277,0.465-0.811,0.19-1.188
		c-5.233-7.21-9.129-15.19-11.58-23.719c-1.965-6.845-2.961-13.964-2.961-21.159c0-0.468-0.381-0.848-0.848-0.848
		c-0.469,0-0.85,0.379-0.85,0.848c0,7.348,1.018,14.624,3.026,21.625C1023.026,326.781,1027.008,334.941,1032.354,342.311z"/>
	<path d="M1070.784,368.791c-0.091-0.033-0.186-0.048-0.278-0.048c-0.36,0-0.678,0.23-0.798,0.573
		c-0.073,0.217-0.058,0.447,0.041,0.65c0.099,0.205,0.271,0.356,0.485,0.43c8.16,2.813,16.726,4.24,25.459,4.24
		c0.468,0,0.848-0.381,0.848-0.85s-0.38-0.848-0.848-0.848C1087.155,372.938,1078.776,371.542,1070.784,368.791z"/>
	<path d="M1147.779,352.773c-0.213,0-0.416,0.08-0.572,0.223c-3.563,3.245-7.455,6.173-11.57,8.7
		c-0.192,0.116-0.327,0.302-0.382,0.522c-0.054,0.221-0.018,0.449,0.101,0.641c0.157,0.254,0.428,0.405,0.726,0.405
		c0.157,0,0.308-0.043,0.443-0.128c4.184-2.562,8.162-5.552,11.825-8.886c0.167-0.153,0.266-0.362,0.275-0.588
		c0.01-0.226-0.067-0.443-0.221-0.609C1148.242,352.872,1148.02,352.773,1147.779,352.773z"/>
	<path d="M1158.033,342.243c0.146,0.104,0.315,0.161,0.494,0.161c0.271,0,0.53-0.132,0.688-0.354
		c4.536-6.303,8.091-13.213,10.567-20.539c0.149-0.441-0.089-0.925-0.523-1.074c-0.09-0.029-0.183-0.042-0.273-0.042
		c-0.369,0-0.694,0.23-0.811,0.575c-2.427,7.169-5.904,13.929-10.336,20.088C1157.567,341.438,1157.654,341.97,1158.033,342.243z"/>
	<path d="M1172.491,305.68l0.103,0.006c0.434,0,0.795-0.325,0.842-0.757c0.302-2.804,0.457-5.662,0.457-8.495
		c0-0.468-0.382-0.848-0.848-0.848c-0.469,0-0.85,0.379-0.85,0.848c0,2.775-0.151,5.571-0.447,8.312
		c-0.023,0.226,0.043,0.447,0.184,0.623C1172.073,305.546,1172.276,305.657,1172.491,305.68z"/>
	<path d="M1155.768,249.06c2.57,3.259,4.896,6.753,6.906,10.386c0.149,0.269,0.436,0.436,0.745,0.436
		c0.144,0,0.286-0.035,0.41-0.103c0.408-0.229,0.558-0.745,0.331-1.155c-2.057-3.714-4.434-7.284-7.062-10.612
		c-4.781-6.053-10.403-11.352-16.71-15.75c-0.143-0.099-0.312-0.153-0.485-0.153c-0.276,0-0.538,0.136-0.696,0.362
		c-0.13,0.188-0.181,0.414-0.14,0.636c0.04,0.223,0.162,0.416,0.351,0.544C1145.595,237.962,1151.096,243.146,1155.768,249.06z"/>
	<path d="M1095.693,219.932c4.613,0,9.215,0.412,13.674,1.221c0.054,0.008,0.108,0.014,0.16,0.014c0.41,0,0.761-0.294,0.834-0.699
		c0.081-0.458-0.227-0.9-0.685-0.985c-4.587-0.83-9.291-1.25-13.983-1.25c-0.469,0-0.85,0.381-0.85,0.849
		S1095.225,219.932,1095.693,219.932z"/>
	<path d="M811.6,535.103v-28.062c13.579-0.526,24.472-11.706,24.472-25.411c0-14.039-11.423-25.46-25.463-25.46
		c-14.039,0-25.46,11.421-25.46,25.46c0,13.705,10.893,24.884,24.47,25.411v28.062H811.6z M787.13,481.63
		c0-12.946,10.533-23.479,23.479-23.479c12.946,0,23.481,10.533,23.481,23.479c0,12.612-10.005,22.905-22.49,23.429V481.63h-1.981
		v23.429C797.133,504.535,787.13,494.242,787.13,481.63z"/>
	<path d="M336.744,289.29c-3.966-2.113-8.414-3.226-12.922-3.226c-15.176,0-27.522,12.346-27.522,27.521
		c0,0.772,0.035,1.55,0.105,2.357c-6.535,0.455-11.712,5.917-11.712,12.566c0,1.262,0.193,2.518,0.557,3.681
		c0.938,3.754,4.294,6.376,8.163,6.376h127.094c3.658,0,6.853-2.313,7.999-5.771c1.875-2.738,2.865-5.916,2.865-9.202
		c0-9.016-7.335-16.35-16.352-16.35c-1.549,0-3.091,0.227-4.6,0.673c-0.626-1.757-1.453-3.468-2.468-5.106
		c0.884-2.661,1.333-5.428,1.333-8.236c0-8.756-4.359-16.886-11.661-21.747c-4.293-2.862-9.293-4.373-14.459-4.373
		c-9.25,0-17.793,4.896-22.49,12.832c-2.024-0.594-4.107-0.896-6.204-0.896C347.468,280.39,340.91,283.701,336.744,289.29z
		 M354.469,282.372c2.153,0,4.291,0.35,6.354,1.039l0.784,0.261l0.399-0.724c4.251-7.718,12.358-12.513,21.158-12.513
		c4.773,0,9.393,1.397,13.361,4.041c6.748,4.493,10.778,12.005,10.778,20.098c0,2.744-0.463,5.448-1.375,8.035l-0.162,0.457
		l0.263,0.408c1.225,1.904,2.173,3.918,2.819,5.989l0.309,0.989l0.974-0.354c1.596-0.579,3.24-0.873,4.889-0.873
		c7.924,0,14.371,6.446,14.371,14.369c0,2.928-0.897,5.759-2.594,8.191l-0.133,0.273c-0.844,2.707-3.317,4.526-6.155,4.526H293.413
		c-2.958,0-5.523-2.004-6.257-4.929c-0.319-1.027-0.481-2.086-0.481-3.146c0-5.846,4.751-10.604,10.783-10.604
		c0.007,0,0.014,0,0.021,0l1.151,0.031l-0.142-1.144c-0.14-1.124-0.207-2.173-0.207-3.207c0-14.082,11.457-25.54,25.54-25.54
		c4.461,0,8.86,1.174,12.72,3.398l0.795,0.457l0.517-0.756C341.611,285.651,347.823,282.372,354.469,282.372z"/>
	<path d="M490.332,232.389h146.052c4.149,0,7.768-2.626,9.057-6.548c2.148-3.124,3.282-6.754,3.282-10.508
		c0-10.28-8.363-18.643-18.639-18.643c-1.809,0-3.615,0.272-5.383,0.809c-4.306-12.359-15.845-20.594-29.023-20.594
		c-0.48,0-0.958,0.016-1.432,0.039c0.143-1.187,0.216-2.378,0.216-3.557c0-8.511-3.673-16.65-10.076-22.33
		c-5.482-4.863-12.513-7.541-19.794-7.541c-16.472,0-29.871,13.401-29.871,29.871c0,0.144,0,0.287,0.004,0.428
		c-3.069-0.969-6.241-1.461-9.448-1.461c-17.358,0-31.477,14.121-31.477,31.477c0,0.923,0.042,1.875,0.131,2.847
		c-7.504,0.445-13.472,6.691-13.472,14.304c0,1.428,0.217,2.858,0.633,4.195C482.158,229.422,485.958,232.389,490.332,232.389z
		 M494.789,208.633l0.012-0.948l0.009-0.002l0.2,0.964l1.147,0.027l-0.14-1.14c-0.159-1.27-0.236-2.516-0.236-3.704
		c0-16.263,13.23-29.496,29.495-29.496c3.46,0,6.88,0.612,10.158,1.817l1.426,0.524l-0.097-1.519
		c-0.037-0.586-0.062-1.177-0.062-1.771c0-15.378,12.511-27.889,27.889-27.889c6.796,0,13.36,2.5,18.48,7.042
		c5.979,5.304,9.409,12.902,9.409,20.847c0,1.48-0.124,2.984-0.364,4.472l-0.201,1.252l1.262-0.106
		c0.824-0.069,1.656-0.118,2.5-0.118c12.646,0,23.677,8.102,27.45,20.162l0.31,0.989l0.973-0.354
		c1.856-0.672,3.764-1.012,5.674-1.012c9.184,0,16.658,7.474,16.658,16.662c0,3.396-1.041,6.68-3.011,9.498l-0.136,0.273
		c-0.983,3.173-3.882,5.304-7.21,5.304H490.332c-3.464,0-6.473-2.35-7.334-5.765c-0.37-1.2-0.557-2.431-0.557-3.662
		C482.44,214.171,487.979,208.633,494.789,208.633z"/>
	<path d="M844.237,265.087h117.857c3.619,0,6.764-2.454,7.631-5.918c0.35-1.142,0.528-2.313,0.528-3.481
		c0-6.179-4.794-11.259-10.856-11.719c0.062-0.726,0.093-1.426,0.093-2.119c0-15.243-13.491-27.45-29.027-25.358
		c0.02-0.399,0.031-0.801,0.031-1.208c0-10.03-5.161-19.11-13.803-24.286c-4.408-2.642-9.429-4.037-14.52-4.037
		c-15.621,0-28.327,12.706-28.327,28.323c0,1.602,0.14,3.216,0.414,4.814c-9.396,1.07-17.526,7.504-20.713,16.406
		c-1.386-0.405-2.803-0.608-4.223-0.608c-8.4,0-15.233,6.833-15.233,15.233c0,3.058,0.921,6.015,2.664,8.563
		C837.828,262.925,840.814,265.087,844.237,265.087z M849.323,237.879c1.521,0,3.038,0.271,4.511,0.803l0.974,0.354l0.31-0.989
		c2.806-8.975,10.999-15.435,20.389-16.073l1.14-0.077l-0.238-1.117c-0.385-1.817-0.58-3.667-0.58-5.496
		c0-14.525,11.817-26.341,26.345-26.341c4.731,0,9.4,1.298,13.499,3.754c8.041,4.816,12.842,13.259,12.842,22.587
		c0,0.778-0.043,1.542-0.106,2.301l-0.108,1.294l1.277-0.238c1.447-0.269,2.9-0.405,4.321-0.405
		c13.02,0,23.612,10.593,23.612,23.613c0,0.952-0.062,1.921-0.191,2.965l0.062,1.101h1.121c5.387,0,9.772,4.383,9.772,9.772
		c0,0.971-0.149,1.947-0.455,2.951c-0.66,2.63-3.013,4.466-5.723,4.466H844.237c-2.603,0-4.868-1.668-5.639-4.149l-0.134-0.272
		c-1.565-2.241-2.394-4.854-2.394-7.553C836.071,243.823,842.016,237.879,849.323,237.879z"/>
	<polygon points="970.811,425.225 996.202,399.834 996.202,419.656 960.659,455.198 962.061,456.6 996.202,422.458 996.202,442.279 
		949.079,489.404 950.48,490.805 996.202,445.082 996.202,464.903 933.757,527.35 935.158,528.751 996.202,467.705 996.202,487.527 
		954.987,528.743 956.389,530.145 996.202,490.329 996.202,546.887 998.184,546.887 998.184,490.329 1037.997,530.145 
		1039.398,528.743 998.184,487.527 998.184,467.705 1059.228,528.751 1060.629,527.35 998.184,464.903 998.184,445.082 
		1043.905,490.805 1045.306,489.404 998.184,442.279 998.184,422.458 1032.325,456.6 1033.727,455.198 998.184,419.656 
		998.184,399.834 1023.574,425.225 1024.976,423.824 997.192,396.042 969.41,423.824 	"/>
	<polygon points="518.697,501.334 520.098,499.933 488.428,468.265 488.428,459.543 510.891,482.004 512.292,480.603 
		488.428,456.741 488.428,448.017 504.993,464.578 506.394,463.177 488.428,445.215 488.428,436.49 500.532,448.594 
		501.933,447.193 487.437,432.697 472.941,447.193 474.342,448.594 486.446,436.49 486.446,445.215 468.482,463.177 
		469.883,464.578 486.446,448.017 486.446,456.741 462.582,480.603 463.983,482.004 486.446,459.543 486.446,468.265 
		454.776,499.933 456.177,501.334 486.446,471.066 486.446,479.792 465.593,500.642 466.994,502.042 486.446,482.594 
		486.446,510.231 488.428,510.231 488.428,482.594 507.882,502.042 509.283,500.642 488.428,479.792 488.428,471.066 	"/>
	<polygon points="625.076,522.083 626.477,520.682 581.19,475.392 581.19,461.761 613.944,494.515 615.346,493.113 581.19,458.958 
		581.19,445.325 605.533,469.664 606.934,468.263 581.19,442.523 581.19,428.884 599.172,446.87 600.573,445.469 580.2,425.092 
		559.823,445.469 561.224,446.87 579.209,428.884 579.209,442.523 553.464,468.263 554.865,469.664 579.209,445.325 
		579.209,458.958 545.052,493.113 546.453,494.515 579.209,461.761 579.209,475.392 533.919,520.682 535.32,522.083 
		579.209,478.194 579.209,491.831 549.346,521.693 550.747,523.095 579.209,494.633 579.209,535.069 581.19,535.069 581.19,494.633 
		609.652,523.095 611.054,521.693 581.19,491.831 581.19,478.194 	"/>
	<path d="M990.456,694.271c-19.094,0-32.707,14.514-33.276,15.133l-0.422,0.685l0.398,0.641c0.13,0.151,13.926,15.162,33.3,15.162
		c10.858,0,21.351-4.666,31.195-13.869l15.821,9.132v-22.149l-15.821,9.136C1011.807,698.937,1001.314,694.271,990.456,694.271z
		 M990.456,723.91c-16.235,0-28.277-10.939-31.171-13.825c2.872-2.835,15.052-13.832,31.171-13.832
		c10.529,0,20.745,4.653,30.364,13.828C1011.203,719.258,1000.985,723.91,990.456,723.91z M1035.491,702.438v15.283l-13.238-7.64
		L1035.491,702.438z"/>
	<path d="M421.662,686.898c-19.094,0-32.706,14.514-33.276,15.133l-0.423,0.685l0.399,0.641c0.13,0.151,13.927,15.162,33.3,15.162
		c10.859,0,21.352-4.666,31.194-13.869l15.822,9.132v-22.149l-15.822,9.136C443.013,691.563,432.521,686.898,421.662,686.898z
		 M421.662,716.537c-16.236,0-28.278-10.939-31.17-13.825c2.872-2.835,15.053-13.832,31.17-13.832
		c10.53,0,20.747,4.654,30.364,13.828C442.408,711.885,432.191,716.537,421.662,716.537z M466.696,695.064v15.284l-13.238-7.641
		L466.696,695.064z"/>
	<path d="M780.523,778.554c0.002,0,0.006,0,0.008,0c27.849-0.004,47.505-21.089,48.33-21.986l0.437-0.691l-0.433-0.646
		c-0.196-0.22-20.006-21.996-48.334-21.996c-15.852,0-31.172,6.858-45.552,20.389l-22.741-13.134v30.804l22.741-13.126
		C749.357,771.696,764.676,778.554,780.523,778.554z M735.808,755.564c14.154-13.503,29.201-20.35,44.724-20.35
		c24.431,0,42.54,16.95,46.229,20.677c-3.554,3.596-21.725,20.679-46.229,20.681c-0.004,0-0.004,0-0.008,0
		c-15.517,0-30.562-6.847-44.716-20.35l-0.344-0.329L735.808,755.564z M714.22,767.858v-23.938l20.732,11.973L714.22,767.858z"/>
	<path d="M628.524,753.246l9.087,6.707l1.177-1.594l-9.088-6.707c-5.182-3.824-13.615-3.824-18.798,0l-9.087,6.707
		c-4.532,3.348-11.909,3.344-16.445,0l-9.085-6.707c-5.184-3.824-13.617-3.824-18.8,0l-9.083,6.707
		c-4.534,3.348-11.913,3.344-16.445,0l-9.087-6.707c-5.188-3.826-13.573-3.753-18.693,0.174l-8.555,6.558l1.206,1.571l8.557-6.558
		c4.466-3.424,11.781-3.491,16.31-0.151l9.087,6.707c5.182,3.824,13.615,3.824,18.798,0l9.083-6.707
		c4.536-3.35,11.913-3.346,16.447,0l9.085,6.707c2.593,1.912,5.995,2.868,9.401,2.868c3.402,0,6.808-0.956,9.397-2.868l9.087-6.707
		C616.613,749.898,623.99,749.902,628.524,753.246z"/>
	<path d="M925.161,830.042l-13.018,9.61c-6.636,4.894-17.432,4.897-24.069,0l-13.016-9.61c-7.286-5.376-19.139-5.376-26.423,0
		l-13.018,9.61c-6.634,4.896-17.432,4.897-24.067,0l-13.018-9.61c-7.283-5.376-19.137-5.376-26.42,0l-13.018,9.61
		c-6.636,4.894-17.432,4.897-24.067,0l-13.018-9.61c-7.284-5.376-19.137-5.376-26.423,0l-13.016,9.61
		c-6.638,4.894-17.434,4.897-24.069,0l-13.016-9.61c-7.293-5.381-19.075-5.269-26.264,0.242l-11.559,8.857l1.206,1.571l11.557-8.857
		c6.539-5.014,17.252-5.11,23.883-0.219l13.016,9.61c7.284,5.376,19.136,5.376,26.422,0l13.016-9.61
		c6.636-4.897,17.432-4.897,24.069,0l13.018,9.61c7.284,5.376,19.137,5.376,26.42,0l13.018-9.61c6.636-4.894,17.433-4.897,24.067,0
		l13.019,9.61c3.642,2.688,8.427,4.03,13.211,4.03c4.783,0,9.567-1.343,13.209-4.03l13.018-9.61c6.636-4.894,17.434-4.896,24.069,0
		l13.016,9.61c7.286,5.376,19.139,5.376,26.423,0l13.018-9.61c6.634-4.894,17.432-4.897,24.067,0l13.018,9.61l1.177-1.595
		l-13.018-9.61C944.296,824.666,932.445,824.666,925.161,830.042z"/>
	<path d="M1276.69,666.256h-93.904c-0.548,0-0.991,0.443-0.991,0.991s0.443,0.99,0.991,0.99h93.904c0.546,0,0.991-0.442,0.991-0.99
		S1277.236,666.256,1276.69,666.256z"/>
	<path d="M252.351,232.389h93.902c0.548,0,0.991-0.443,0.991-0.991c0-0.548-0.443-0.991-0.991-0.991h-93.902
		c-0.548,0-0.991,0.443-0.991,0.991C251.36,231.945,251.803,232.389,252.351,232.389z"/>
	<path d="M234.378,641.157h-93.903c-0.548,0-0.991,0.443-0.991,0.991s0.443,0.99,0.991,0.99h93.903c0.547,0,0.991-0.442,0.991-0.99
		S234.925,641.157,234.378,641.157z"/>
	<path d="M332.636,686.9h-93.904c-0.546,0-0.991,0.443-0.991,0.99c0,0.548,0.444,0.991,0.991,0.991h93.904
		c0.547,0,0.991-0.443,0.991-0.991C333.626,687.344,333.183,686.9,332.636,686.9z"/>
	<path d="M442.017,791.096h-27.238c-0.547,0-0.991,0.443-0.991,0.991c0,0.547,0.444,0.99,0.991,0.99h27.238
		c0.548,0,0.991-0.443,0.991-0.99C443.008,791.539,442.565,791.096,442.017,791.096z"/>
	<path d="M140.475,674.479h-27.238c-0.546,0-0.991,0.443-0.991,0.991c0,0.547,0.444,0.99,0.991,0.99h27.238
		c0.547,0,0.991-0.443,0.991-0.99C141.465,674.922,141.022,674.479,140.475,674.479z"/>
	<path d="M364.487,623.321h-54.521c-0.546,0-0.991,0.443-0.991,0.991c0,0.547,0.444,0.99,0.991,0.99h54.521
		c0.547,0,0.991-0.443,0.991-0.99C365.478,623.765,365.034,623.321,364.487,623.321z"/>
	<path d="M880.885,658.33H775.378c-0.546,0-0.991,0.443-0.991,0.99c0,0.548,0.445,0.991,0.991,0.991h105.507
		c0.546,0,0.991-0.443,0.991-0.991C881.876,658.773,881.431,658.33,880.885,658.33z"/>
	<path d="M238.732,256.663h27.238c0.547,0,0.991-0.443,0.991-0.991c0-0.548-0.443-0.991-0.991-0.991h-27.238
		c-0.546,0-0.991,0.443-0.991,0.991C237.741,256.22,238.186,256.663,238.732,256.663z"/>
	<path d="M438.849,178.787h21.461c0.548,0,0.991-0.443,0.991-0.991c0-0.547-0.443-0.991-0.991-0.991h-21.461
		c-0.547,0-0.991,0.443-0.991,0.991C437.858,178.344,438.302,178.787,438.849,178.787z"/>
	<path d="M859.963,340.549c-0.546,0-0.991,0.443-0.991,0.991c0,0.548,0.445,0.991,0.991,0.991h21.462
		c0.548,0,0.991-0.443,0.991-0.991c0-0.547-0.443-0.991-0.991-0.991H859.963z"/>
	<path d="M1134.117,694.273h-27.237c-0.548,0-0.99,0.442-0.99,0.99s0.442,0.991,0.99,0.991h27.237c0.548,0,0.991-0.443,0.991-0.991
		S1134.665,694.273,1134.117,694.273z"/>
	<path d="M943.413,782.287c0.193,0.193,0.447,0.29,0.701,0.29c0.253,0,0.507-0.097,0.7-0.29l7.237-7.237l7.235,7.237
		c0.193,0.193,0.447,0.29,0.7,0.29c0.254,0,0.508-0.097,0.701-0.29c0.387-0.387,0.387-1.014,0-1.401l-7.235-7.237l7.235-7.237
		c0.387-0.387,0.387-1.014,0-1.401c-0.388-0.387-1.015-0.387-1.401,0l-7.235,7.237l-7.237-7.237c-0.387-0.387-1.014-0.387-1.401,0
		c-0.387,0.388-0.387,1.015,0,1.401l7.237,7.237l-7.237,7.237C943.026,781.273,943.026,781.9,943.413,782.287z"/>
	<path d="M519.22,823.631l10.599-10.601c0.387-0.387,0.387-1.014,0-1.4c-0.387-0.388-1.014-0.388-1.401,0l-10.599,10.601
		l-10.601-10.601c-0.387-0.388-1.014-0.388-1.401,0c-0.387,0.387-0.387,1.014,0,1.4l10.601,10.601l-10.603,10.603
		c-0.387,0.388-0.387,1.015,0,1.401c0.193,0.193,0.447,0.29,0.701,0.29c0.253,0,0.507-0.097,0.7-0.29l10.603-10.603l10.601,10.603
		c0.193,0.193,0.445,0.29,0.7,0.29c0.251,0,0.507-0.097,0.701-0.29c0.387-0.387,0.387-1.014,0-1.401L519.22,823.631z"/>
	<path d="M656.877,162.058c0.194,0.193,0.447,0.29,0.701,0.29s0.507-0.097,0.7-0.29l10.601-10.603l10.601,10.603
		c0.193,0.193,0.449,0.29,0.701,0.29c0.255,0,0.507-0.097,0.7-0.29c0.387-0.387,0.387-1.014,0-1.401l-10.601-10.603l10.601-10.601
		c0.387-0.387,0.387-1.014,0-1.401c-0.387-0.387-1.014-0.387-1.401,0l-10.601,10.601l-10.599-10.601
		c-0.387-0.387-1.014-0.387-1.401,0s-0.387,1.014,0,1.401l10.599,10.601l-10.601,10.603
		C656.49,161.044,656.49,161.671,656.877,162.058z"/>
	<path d="M895.069,755.803c0-3.779-3.072-6.853-6.852-6.853s-6.853,3.073-6.853,6.853s3.073,6.854,6.853,6.854
		S895.069,759.582,895.069,755.803z M883.347,755.803c0-2.686,2.185-4.871,4.871-4.871c2.686,0,4.87,2.186,4.87,4.871
		s-2.185,4.873-4.87,4.873C885.531,760.676,883.347,758.488,883.347,755.803z"/>
	<path d="M449.582,131.849c5.581,0,10.123-4.542,10.123-10.125c0-5.583-4.542-10.125-10.123-10.125
		c-5.583,0-10.125,4.542-10.125,10.125C439.456,127.307,443.998,131.849,449.582,131.849z M449.582,113.581
		c4.49,0,8.141,3.653,8.141,8.143c0,4.489-3.651,8.143-8.141,8.143c-4.491,0-8.144-3.654-8.144-8.143
		C441.438,117.234,445.09,113.581,449.582,113.581z"/>
	<path d="M901.181,374.635c0,5.583,4.54,10.125,10.125,10.125c5.581,0,10.122-4.542,10.122-10.125s-4.541-10.125-10.122-10.125
		C905.721,364.51,901.181,369.052,901.181,374.635z M919.446,374.635c0,4.49-3.651,8.143-8.141,8.143
		c-4.491,0-8.144-3.653-8.144-8.143c0-4.489,3.652-8.143,8.144-8.143C915.795,366.492,919.446,370.146,919.446,374.635z"/>
	<path d="M1105.89,642.148c0,0.548,0.442,0.99,0.99,0.99h132.091c0.548,0,0.991-0.442,0.991-0.99s-0.443-0.991-0.991-0.991H1106.88
		C1106.332,641.157,1105.89,641.601,1105.89,642.148z"/>
	<path d="M1137.504,580.241c0-11.048-8.987-20.036-20.035-20.036l-188.757,0.002c-0.532-18.853-15.998-34.035-34.976-34.035
		c-13.242,0-25.114,7.265-31.151,19.009c-1.055-0.126-1.984-0.187-2.882-0.187c-10.171,0-19.269,5.953-23.386,15.211h-152.1
		c-5.161-4.079-11.354-6.245-17.941-6.245c-6.496,0-12.855,2.222-17.962,6.245H411.251l-7.912-13.67l-0.198-0.345l-25.193-7.387
		l-14.11,21.401H215.085c-11.047,0-20.036,8.988-20.036,20.036c0,11.046,8.989,20.032,20.036,20.032h48.005
		c9.955,0,18.055,8.101,18.055,18.059c0,11.046,8.989,20.033,20.036,20.033h261.147c9.957,0,18.055,8.101,18.055,18.059
		c0,11.048,8.989,20.036,20.037,20.036h305.034c11.049,0,20.038-8.988,20.038-20.036c0-9.958,8.099-18.059,18.055-18.059h87.826
		c11.05,0,20.038-8.987,20.038-20.033c0-9.958,8.099-18.059,18.055-18.059h48.003
		C1128.517,600.273,1137.504,591.287,1137.504,580.241z M859.703,546.977c0.998,0,2.051,0.083,3.313,0.259l0.713,0.101l0.315-0.646
		c5.598-11.435,16.975-18.536,29.692-18.536c18.22,0,33.043,14.823,33.045,33.044c0,18.22-14.823,33.043-33.045,33.043h-34.033
		c-13.031,0-23.632-10.601-23.632-23.632c0-3.116,0.604-6.156,1.796-9.033C841.54,552.706,850.11,546.977,859.703,546.977z
		 M683.269,561.966c4.559,3.694,7.847,8.842,9.257,14.492l0.213,0.852l0,0l0,0l0.871-0.108c0.805-0.101,1.471-0.147,2.096-0.147
		c7.975,0,14.651,5.678,16.195,13.206c0.221,1.073,0.337,2.187,0.337,3.326s-0.116,2.253-0.337,3.326
		c-1.544,7.528-8.221,13.206-16.195,13.206h-29.43c-14.935,0-27.086-12.151-27.086-27.089c0-8.208,3.671-15.885,10.072-21.063
		c4.873-3.942,10.757-6.024,17.014-6.024C672.529,555.941,678.404,558.023,683.269,561.966z M378.796,541.118l22.365,6.559
		l-4.953,12.528l-0.784,1.981l-5.093,12.884c-0.201,0.509,0.048,1.084,0.558,1.285c0.119,0.049,0.242,0.069,0.364,0.069
		c0.395,0,0.767-0.237,0.921-0.627l5.382-13.611l0.784-1.981l4.312-10.904l6.312,10.904l1.146,1.981l18.553,32.054H322.24
		l16.993-22.438h18.799h0.534h12.375c0.548,0,0.991-0.442,0.991-0.99s-0.443-0.991-0.991-0.991h-11.069l5.033-7.634l1.306-1.981
		L378.796,541.118z M1049.43,618.332c0,9.953-8.101,18.052-18.057,18.052h-87.826c-11.048,0-20.036,8.99-20.036,20.04
		c0,9.956-8.101,18.055-18.057,18.055H600.42c-9.956,0-18.055-8.099-18.055-18.055c0-11.05-8.989-20.04-20.037-20.04H301.182
		c-9.955,0-18.055-8.099-18.055-18.052c0-11.049-8.989-20.04-20.036-20.04h-48.005c-9.955,0-18.055-8.097-18.055-18.051
		c0-9.956,8.1-18.055,18.055-18.055h147.446l-5.034,7.634h-19.25l-19.995,26.401h113.845l-19.7-34.035h233.63
		c-0.082,0.079-0.151,0.166-0.23,0.246c-0.288,0.286-0.551,0.588-0.826,0.886c-0.43,0.463-0.855,0.927-1.252,1.415
		c-0.269,0.331-0.521,0.673-0.772,1.016c-0.36,0.481-0.71,0.97-1.037,1.473c-0.236,0.366-0.46,0.733-0.681,1.108
		c-0.302,0.512-0.584,1.026-0.852,1.553c-0.197,0.387-0.387,0.775-0.567,1.17c-0.246,0.544-0.468,1.098-0.681,1.655
		c-0.151,0.396-0.304,0.791-0.439,1.195c-0.193,0.589-0.354,1.187-0.511,1.788c-0.101,0.392-0.215,0.776-0.302,1.173
		c-0.143,0.67-0.244,1.351-0.343,2.032c-0.048,0.341-0.118,0.673-0.153,1.014c-0.112,1.029-0.174,2.07-0.174,3.119
		c0,16.029,13.039,29.07,29.067,29.07h29.43c10.208,0,18.514-8.306,18.514-18.514s-8.306-18.514-18.514-18.514
		c-0.468,0-0.95,0.023-1.48,0.07c-0.189-0.67-0.408-1.332-0.646-1.986c-0.073-0.205-0.16-0.406-0.24-0.609
		c-0.174-0.448-0.354-0.894-0.549-1.333c-0.104-0.232-0.217-0.461-0.327-0.688c-0.194-0.407-0.395-0.806-0.608-1.2
		c-0.125-0.232-0.251-0.463-0.381-0.69c-0.225-0.392-0.461-0.776-0.703-1.157c-0.134-0.211-0.265-0.424-0.406-0.633
		c-0.279-0.415-0.571-0.819-0.873-1.22c-0.118-0.158-0.232-0.325-0.354-0.481c-0.43-0.55-0.876-1.086-1.345-1.604
		c-0.07-0.077-0.144-0.147-0.213-0.225c-0.354-0.383-0.712-0.763-1.086-1.128h149.019c-0.065,0.188-0.112,0.383-0.174,0.572
		c-0.093,0.293-0.182,0.587-0.268,0.881c-0.133,0.473-0.251,0.952-0.357,1.432c-0.064,0.287-0.13,0.573-0.184,0.859
		c-0.097,0.522-0.171,1.051-0.232,1.579c-0.031,0.25-0.074,0.496-0.095,0.747c-0.072,0.778-0.114,1.562-0.114,2.352
		c0,14.122,11.488,25.613,25.613,25.613h34.033c1.198,0,2.38-0.062,3.547-0.18c0.388-0.039,0.763-0.12,1.146-0.173
		c0.771-0.103,1.545-0.199,2.3-0.352c0.452-0.092,0.886-0.227,1.331-0.337c0.669-0.165,1.345-0.312,1.997-0.515
		c0.46-0.142,0.899-0.327,1.351-0.486c0.617-0.221,1.242-0.424,1.844-0.677c0.451-0.189,0.881-0.418,1.324-0.625
		c0.574-0.271,1.159-0.528,1.716-0.83c0.439-0.236,0.854-0.507,1.279-0.761c0.534-0.319,1.076-0.623,1.593-0.968
		c0.418-0.28,0.813-0.594,1.22-0.894c0.491-0.36,0.992-0.711,1.463-1.094c0.395-0.321,0.758-0.674,1.138-1.01
		c0.452-0.402,0.913-0.796,1.343-1.222c0.364-0.357,0.698-0.745,1.045-1.118c0.41-0.439,0.826-0.873,1.213-1.333
		c0.331-0.396,0.631-0.813,0.943-1.222c0.365-0.474,0.737-0.942,1.075-1.438c0.294-0.428,0.558-0.877,0.834-1.318
		c0.315-0.505,0.639-1.004,0.929-1.526c0.256-0.461,0.479-0.938,0.715-1.411c0.265-0.531,0.538-1.061,0.775-1.607
		c0.211-0.488,0.394-0.991,0.583-1.49c0.213-0.558,0.432-1.111,0.615-1.682c0.166-0.515,0.302-1.043,0.445-1.567
		c0.156-0.579,0.319-1.151,0.446-1.74c0.118-0.538,0.202-1.089,0.293-1.637c0.101-0.596,0.205-1.187,0.274-1.79
		c0.063-0.562,0.093-1.13,0.132-1.697c0.031-0.449,0.091-0.886,0.104-1.337h188.72c9.955,0,18.054,8.099,18.054,18.055
		c0,9.954-8.099,18.051-18.054,18.051h-48.003C1058.419,598.292,1049.43,607.283,1049.43,618.332z"/>
	<path d="M359.48,521.287c0.433,0,0.788-0.352,0.788-0.785v-38.521l0.377-0.018c12.307-0.548,22.457-9.43,22.86-9.786
		c9.186-9.496,13.723-20.303,13.486-32.123c-0.51-25.08-21.929-45.776-22.858-46.662c-6.028-6.516-12.418-7.021-14.233-7.021
		c-0.171,0-0.297,0.002-0.426,0.01c-0.082-0.006-0.233-0.014-0.447-0.014c-1.805,0-8.165,0.503-14.163,6.992
		c-0.914,0.869-22.38,21.557-22.891,46.695c-0.239,11.816,4.321,22.647,13.529,32.169c0.431,0.375,10.682,9.2,22.813,9.74
		l0.379,0.018v38.521C358.694,520.936,359.046,521.287,359.48,521.287z M358.278,480.392c-11.474-0.577-21.564-9.198-21.691-9.31
		c-8.882-9.184-13.269-19.609-13.041-30.981c0.482-24.06,21.551-44.779,22.436-45.636c5.59-6.047,11.424-6.518,13.079-6.518h0.839
		c1.654,0,7.493,0.474,13.112,6.552c0.219,0.207,21.907,21.112,22.405,45.59c0.231,11.379-4.134,21.784-12.997,30.951
		c-0.099,0.087-10.106,8.768-21.737,9.353l-0.416,0.019V451.99c0-0.436-0.354-0.788-0.788-0.788c-0.434,0-0.786,0.352-0.786,0.788
		v28.421L358.278,480.392z"/>
	<path d="M291.057,535.426c0.366,0,0.664-0.299,0.664-0.664v-29.517l0.195-0.002c10.125-0.13,16.855-2.496,20.003-7.036
		c3.308-4.776,1.366-10.127,1.283-10.345l-12.744-31.173c-2.569-8.079-9.34-8.224-9.407-8.226c-0.068,0.002-6.833,0.159-9.38,8.178
		l-12.769,31.239c-0.083,0.225-2.003,5.573,1.292,10.326c3.145,4.54,9.874,6.908,20.002,7.038l0.196,0.002v29.517
		C290.393,535.127,290.69,535.426,291.057,535.426z M290.192,503.916c-9.644-0.124-16.002-2.296-18.896-6.448
		c-2.86-4.108-1.232-8.89-1.158-9.103l12.781-31.274c2.262-7.113,7.891-7.295,8.132-7.299c0.058,0,5.848,0.083,8.163,7.35
		l12.755,31.208c0.071,0.204,1.711,5.004-1.154,9.119c-2.893,4.152-9.249,6.324-18.893,6.448l-0.201,0.004v-18.1
		c0-0.364-0.298-0.662-0.664-0.662c-0.367,0-0.665,0.298-0.665,0.662v18.1L290.192,503.916z"/>
</g>
</svg>
